# xmcd
#
# Track frame offsets: 
#        150
#        72514
#        152891
#        234777
#        261612
#
# Disc length: 3660 seconds
#
# Revision: 0
# Processed by: cddbd v1.5.2PL0 Copyright (c) Steve Scherf et al.
# Submitted via: ExactAudioCopy v0.99pb3
#
DISCID=420e4a05
DTITLE=Sunny Ade - Oro-T'Onlo
DYEAR=2003
DGENRE=Ethnic
TTITLE0=Late Dr. Nkruma - Kama Bu Ni Lole - I.S. Adewake - Olalade Wil
TTITLE0=key - Oro To Nlo
TTITLE1=Ori Mi Maje N'te - Owo Omode O To Pepe - Timu Mi Ni Mo - Pe Mi
TTITLE1=So Fun Mi
TTITLE2=Ogun Special
TTITLE3=Eddy Esq Fatayi Darame
TTITLE4=Alanu Loluwa
EXTD=
EXTT0=
EXTT1=
EXTT2=
EXTT3=
EXTT4=
PLAYORDER=
